<svg width="100" height="100" viewBox="0 0 100 100" fill="none" xmlns="http://www.w3.org/2000/svg">
<path d="M17.0166 32.96C17.0274 33.7326 17.5843 34.3653 18.2889 34.4135C19.7332 34.5068 20.6474 34.5527 22.9929 34.7149C23.0029 34.6682 24.1726 34.7807 24.1405 35.5687C24.1137 36.2572 23.3349 36.1937 23.0817 36.2044C20.245 36.3161 18.0754 35.6268 15.9724 36.9878C14.3192 38.0588 13.9069 40.4915 13.7133 42.5793C13.1396 48.7323 13.6598 60.1195 13.8044 60.0981C17.5124 59.5213 29.6991 58.3462 31.6414 54.3674C34.6525 48.2013 35.1207 28.6629 32.4187 25.8323C30.1894 23.4967 27.1699 23.4547 18.601 24.0521C18.233 24.072 17.0052 32.0244 17.0166 32.96ZM25.9283 35.3667C26.2282 34.6376 28.0175 35.2497 28.2287 34.7371C28.8109 33.3203 28.0642 31.9364 28.6066 30.6167C28.7045 30.3788 29.0549 30.3008 29.2951 30.3956C29.4538 30.4718 29.5802 30.602 29.6516 30.7628C30.0693 31.56 29.465 33.7426 29.6929 34.5711C29.8352 35.0875 31.4012 34.913 31.6544 34.9773C32.0997 35.0921 32.2328 35.6773 31.6881 35.9267C31.2413 36.1325 29.914 35.636 29.7312 36.2862C29.6493 36.577 29.7939 38.6119 29.7075 39.1214C29.6837 39.3368 29.6124 39.5443 29.4986 39.7288C29.3755 39.9063 29.162 40.0348 28.9486 40.0019C28.5485 39.9384 28.4375 39.422 28.4192 39.0173C28.4024 38.6402 28.6403 36.6756 28.3427 36.2572C28.0267 35.8135 27.6488 35.9328 26.9381 35.9871C26.7851 35.9994 26.2611 36.0162 26.1104 35.9718C25.8747 35.9022 25.8357 35.5916 25.9283 35.3667Z" fill="#FFEC16"/>
<path d="M42.4456 50.9408C43.245 50.6019 42.8625 44.7763 42.9673 40.4272C42.9765 40.0248 43.6688 38.7044 43.7943 40.4112C44.1768 45.5628 43.5281 50.0503 43.6788 50.4764C43.9894 51.3478 49.9787 49.5118 50.1814 49.2907C50.8401 48.583 50.4201 48.2533 50.4232 38.2745C50.4232 37.1484 50.4232 36.0223 50.4232 34.8962C50.4232 34.2719 50.4844 33.2361 50.3757 32.6225C50.2296 31.7994 49.7461 31.5944 49.1517 31.5033C48.708 31.4352 47.8573 31.7428 47.4526 31.9432C45.9226 32.6983 44.7039 34.0179 43.027 34.2696C42.5305 34.3461 41.8994 34.2566 41.7265 33.7662C41.6064 33.4273 41.7892 33.0311 42.0776 32.8291C42.366 32.6271 42.7302 32.5843 42.5527 32.5766C44.1737 32.3982 45.7659 32.0171 47.2919 31.4421C48.2344 31.0872 49.1953 30.6236 49.7836 29.779C50.313 29.0201 52.5507 24.1584 50.0774 22.8847C47.3945 21.5031 42.9 22.542 38.3359 23.1425C37.0071 23.3177 37.4026 29.6719 35.0402 52.5068C34.8949 53.9075 40.7824 51.6454 42.4456 50.9408ZM43.5166 28.0302C43.8884 27.8007 44.3635 27.7295 44.8225 27.7043C45.2808 27.6914 45.7381 27.6546 46.1926 27.5941C47.4228 27.396 46.9875 26.8444 47.6071 26.5392C47.842 26.4236 48.1656 26.4902 48.3591 26.6524C48.6062 26.8597 48.6322 27.1948 48.5695 27.487C48.4165 28.2122 47.8045 28.8304 47.0563 29.1915C46.3081 29.5525 45.4268 29.6772 44.5662 29.6688C44.2748 29.6762 43.984 29.6385 43.704 29.5571C43.4309 29.4676 43.1823 29.2963 43.0767 29.0622C42.913 28.695 43.1471 28.262 43.5189 28.0302H43.5166Z" fill="#FFEC16"/>
<path d="M70.2498 45.3491C70.2762 45.5544 70.3645 45.7468 70.503 45.9007C70.6464 46.0441 70.825 46.1472 71.0209 46.1998C72.3 46.6351 84.8156 46.2258 85.0008 43.8895C85.2463 40.7919 85.6656 30.6777 81.904 32.0677C81.4021 32.2528 80.1207 32.1205 78.8829 31.9583C78.528 31.9116 78.1577 31.8543 77.8188 31.9744C77.0155 32.2574 76.8044 33.3147 76.7225 34.1929C76.6407 35.0711 76.659 36.1689 77.4111 36.5874C77.8027 36.8054 78.2748 36.7549 78.7192 36.7771C79.1637 36.7993 79.6678 36.9523 79.8423 37.3777C79.9547 37.6531 79.8928 37.9774 79.7551 38.2398C79.4491 38.8266 77.4371 38.9949 76.8082 38.8519C76.0027 38.6682 74.7243 35.1905 75.8795 31.982C76.6721 29.7795 81.956 31.2239 83.3567 29.5485C84.1218 28.6305 83.1165 25.4848 82.6744 24.2385C82.521 23.8007 82.2063 23.4379 81.7946 23.2241C78.8959 21.7347 70.8021 22.4714 68.8391 24.7465C67.6915 26.0792 67.7336 27.0607 67.8576 28.8462C68.2431 34.4056 69.4526 38.1113 70.2498 45.3491Z" fill="#FFEC16"/>
<path d="M26.225 60.5678C21.3664 59.2015 20.4461 65.4456 19.8754 71.6865C19.8624 71.8227 19.4225 71.8395 19.4225 71.7057C19.3972 61.5692 15.4758 61.6763 14.6029 61.8431C12.1372 62.3144 13.5877 68.1047 13.7247 68.641C14.4269 71.3859 14.9525 76.3799 16.123 77.3813C16.6646 77.8403 22.6401 77.9023 23.2024 77.0087C24.2076 75.4099 25.502 68.2914 25.502 68.2914C25.5984 67.9318 25.8371 66.8019 25.9358 66.4424C26.4384 64.6147 28.0572 61.0834 26.225 60.5678Z" fill="#FFEC16"/>
<path d="M34.6705 66.6384C33.4228 64.5017 40.4655 67.4585 40.1687 63.9203C40.0494 62.4989 34.503 64.5935 34.3485 62.7537C34.272 61.8762 38.8108 62.5158 39.7403 62.0721C40.5818 61.6712 40.6583 56.0063 39.8994 55.7584C39.1405 55.5105 29.4095 59.2415 28.5772 59.8757C27.5529 60.6537 26.8116 72.6445 26.2653 76.8881C26.2194 77.2453 26.5637 77.5567 27.0181 77.5666C31.0979 77.6584 37.5156 78.7823 40.376 77.774C42.2075 77.1283 40.8442 70.1514 40.2131 66.923C39.9989 65.8451 34.9827 67.1724 34.6705 66.6384Z" fill="#FFEC16"/>
<path d="M64.8383 60.0407C64.9607 58.4969 70.1758 60.2243 70.0625 58.0639C70.0319 57.4848 70.7465 53.4103 69.3212 52.2605C67.0905 50.4627 57.7749 51.0961 56.775 53.0653C55.6711 55.2341 56.6985 63.3746 57.8858 63.8306C58.7679 64.1687 61.4248 63.4924 61.9488 64.275C63.5515 66.668 58.6126 63.9499 57.5936 67.586C57.2195 68.9202 55.9243 72.4568 57.3863 78.4339C57.6326 79.4414 61.4913 79.7689 62.5187 79.9089C64.3142 80.1544 69.2922 82.0746 70.7702 80.0259C71.741 78.6802 71.0219 63.523 70.2469 60.8455C69.807 59.3323 64.712 61.6388 64.8383 60.0407Z" fill="#FFEC16"/>
<path d="M86.6096 63.6669C85.6502 62.8836 79.2371 64.9529 79.8009 63.1896C80.3471 61.4744 85.1905 62.6946 85.2287 61.1753C85.3863 54.844 79.8966 59.5198 79.9455 57.5759C79.9776 56.2754 84.8011 57.644 84.847 55.8095C84.9349 52.2736 84.8294 48.8608 83.8609 48.9328C79.4773 49.2602 72.5647 49.8569 72.6151 52.4625C72.7069 57.0243 71.8172 74.9379 72.8546 80.882C73.2616 83.213 84.8829 83.018 86.6249 82.0502C89.6145 80.3894 88.3913 65.1212 86.6096 63.6669Z" fill="#FFEC16"/>
<path d="M58.9976 47.6405C59.8506 47.0568 58.0176 34.226 58.4376 33.5452C58.6847 33.1428 59.5652 33.3524 59.618 33.6446C60.4312 38.1398 60.3891 46.0049 61.438 47.271C61.6629 47.5419 68.2948 47.3116 68.2152 45.715C68.1204 43.8086 66.7051 24.8515 63.8049 23.0951C61.4586 21.6744 55.5741 21.1825 53.7519 23.5763C52.7267 24.9234 51.3237 45.1634 52.2218 47.9802C52.6587 49.3458 58.7069 47.8402 58.9976 47.6405ZM58.8262 28.2344C59.0113 28.0049 58.5829 26.1467 59.4726 26.1467C60.2836 26.1467 59.5621 27.819 59.8949 28.2344C60.1244 28.519 61.1817 28.2796 61.2322 28.822C61.301 29.5671 60.3723 29.1111 59.9316 29.3361C59.618 29.4975 59.7916 30.0353 59.8062 30.3879C59.8245 30.8393 59.7626 31.5492 59.4443 31.5209C59.0542 31.4865 58.8361 31.4934 58.8966 30.2763C58.9096 30.01 58.9478 29.4982 58.7237 29.3582C58.547 29.245 58.1117 29.2733 57.9051 29.2771C57.6986 29.281 57.4553 29.0522 57.4377 28.8426C57.3742 28.0677 58.6097 28.4999 58.8262 28.2344Z" fill="#FFEC16"/>
<path d="M55.3592 65.7653C55.3477 65.1862 55.389 64.223 55.2689 63.6554C55.1075 62.8942 54.621 62.7137 54.0265 62.641C53.5821 62.5867 52.7375 62.8896 52.3366 63.0832C50.8204 63.816 49.6269 65.0661 47.9554 65.3331C47.4604 65.4096 46.8278 65.3445 46.6457 64.8924C46.5195 64.5795 46.6594 64.1526 46.9785 64.0149C48.2025 63.4863 50.6444 63.1887 52.1591 62.6242C53.0948 62.2761 54.0472 61.8255 54.6194 61.0299C55.1305 60.3207 55.2735 59.4233 55.2972 58.5604C55.3339 57.2385 55.0677 55.8063 54.0732 54.9029C51.772 52.8213 49.4892 54.3283 42.6653 54.8264C41.3288 54.9243 42.7946 73.866 42.2063 76.6943C41.8314 78.499 46.2884 78.9243 47.9378 78.2366C48.7311 77.9061 47.9875 75.0954 48.0066 71.0523C48.0066 70.6782 48.676 69.4389 48.8336 71.021C49.3087 75.7969 49.1794 77.9826 49.3378 78.3727C49.6652 79.1752 55.1871 79.3466 55.389 79.1378C56.0347 78.4668 55.6086 78.17 55.4235 68.9003L55.3592 65.7653ZM47.9386 60.4737C48.2943 60.2947 48.7127 60.2756 49.1129 60.2189C49.5814 60.1502 50.0315 59.9881 50.4363 59.7423C51.2993 59.2252 50.8188 58.1626 51.1363 58.0104C51.4783 57.8474 51.9013 58.0677 52.1224 58.3577C52.5233 58.8802 52.5279 59.6123 52.2249 60.1937C51.922 60.7751 51.349 61.2012 50.714 61.4567C50.0791 61.7123 49.3821 61.8056 48.6913 61.8392C48.227 61.8637 47.6547 61.8025 47.4757 61.404C47.3166 61.0574 47.5851 60.6519 47.9408 60.4737H47.9386Z" fill="#FFEC16"/>
<path d="M12.9878 22.1165L14.9004 22.707C14.94 22.7194 14.9756 22.7419 15.0036 22.7724C15.0317 22.8029 15.0512 22.8403 15.0603 22.8807L15.6669 25.6271C15.6783 25.6795 15.7073 25.7264 15.749 25.7601C15.7908 25.7937 15.8428 25.8121 15.8964 25.8121C15.9501 25.8121 16.0021 25.7937 16.0438 25.7601C16.0856 25.7264 16.1146 25.6795 16.1259 25.6271L16.7326 22.8807C16.7416 22.8403 16.7612 22.8029 16.7892 22.7724C16.8173 22.7419 16.8529 22.7194 16.8925 22.707L18.841 22.1057C18.8887 22.0908 18.9305 22.061 18.9601 22.0207C18.9897 21.9804 19.0057 21.9316 19.0057 21.8816C19.0057 21.8316 18.9897 21.7828 18.9601 21.7425C18.9305 21.7022 18.8887 21.6724 18.841 21.6574L16.8925 21.0561C16.8529 21.0439 16.8172 21.0214 16.7891 20.9909C16.7611 20.9604 16.7415 20.923 16.7326 20.8825L16.1359 18.1828C16.124 18.1305 16.0945 18.0838 16.0525 18.0506C16.0104 18.0173 15.9582 17.9995 15.9045 18C15.8509 18.0005 15.7991 18.0194 15.7576 18.0535C15.7162 18.0876 15.6877 18.1348 15.6769 18.1873L15.1207 20.9368C15.1123 20.9792 15.0924 21.0184 15.0631 21.0501C15.0338 21.0818 14.9963 21.1048 14.9547 21.1166L12.9932 21.6666C12.9443 21.6801 12.901 21.7091 12.87 21.7494C12.839 21.7896 12.8219 21.8388 12.8213 21.8895C12.8207 21.9403 12.8366 21.9899 12.8667 22.0308C12.8967 22.0718 12.9392 22.1018 12.9878 22.1165Z" fill="#FFEC16"/>
<path d="M13.4135 28.6933L13.796 30.4345C13.8061 30.4651 13.8256 30.4918 13.8517 30.5107C13.8778 30.5296 13.9092 30.5397 13.9414 30.5397C13.9736 30.5397 14.005 30.5296 14.0311 30.5107C14.0572 30.4918 14.0767 30.4651 14.0867 30.4345L14.4692 28.6933C14.4749 28.6677 14.4874 28.6441 14.5053 28.6248C14.5231 28.6056 14.5458 28.5915 14.571 28.584L15.8057 28.2014C15.8343 28.1902 15.8587 28.1706 15.876 28.1452C15.8933 28.1198 15.9025 28.0898 15.9025 28.0592C15.9025 28.0285 15.8933 27.9985 15.876 27.9731C15.8587 27.9477 15.8343 27.9281 15.8057 27.9169L14.571 27.5344C14.546 27.5263 14.5235 27.5119 14.5057 27.4926C14.4879 27.4733 14.4753 27.4497 14.4692 27.4242L14.0913 25.7129C14.0814 25.682 14.062 25.655 14.0358 25.6359C14.0096 25.6168 13.978 25.6064 13.9456 25.6064C13.9132 25.6064 13.8816 25.6168 13.8554 25.6359C13.8292 25.655 13.8097 25.682 13.7999 25.7129L13.4479 27.4563C13.4421 27.483 13.4293 27.5077 13.4107 27.5277C13.3921 27.5478 13.3685 27.5625 13.3424 27.5703L12.0992 27.9184C12.0702 27.9294 12.0452 27.949 12.0276 27.9745C12.0099 28.0001 12.0005 28.0304 12.0005 28.0614C12.0005 28.0925 12.0099 28.1228 12.0276 28.1484C12.0452 28.1739 12.0702 28.1935 12.0992 28.2045L13.3118 28.5786C13.3377 28.5865 13.3609 28.6014 13.3788 28.6216C13.3968 28.6419 13.4088 28.6667 13.4135 28.6933Z" fill="#FFEC16"/>
</svg>
